<svg width="43" height="45" viewBox="0 0 43 45" xmlns="http://www.w3.org/2000/svg" xmlns:xlink="http://www.w3.org/1999/xlink">
    <g id="g1">
        <g id="g2">
            <path id="path1" fill="#ffffff" fill-rule="evenodd" stroke="#000000" stroke-width="1.5" stroke-linecap="round" stroke-linejoin="round" d="M 7 36 C 10.389999 35.029999 17.110001 36.43 20.5 34 C 23.889999 36.43 30.610001 35.029999 34 36 C 34 36 35.650002 36.540001 37 38 C 36.320007 38.970001 35.349998 38.990002 34 38.5 C 30.610001 37.529999 23.889999 38.959999 20.5 37.5 C 17.110001 38.959999 10.389999 37.529999 7 38.5 C 5.645996 38.990002 4.677002 38.970001 4 38 C 5.354004 36.060001 7 36 7 36 Z"/>
            <path id="path2" fill="#ffffff" fill-rule="evenodd" stroke="#000000" stroke-width="1.5" stroke-linecap="round" stroke-linejoin="round" d="M 13 32 C 15.5 34.5 25.5 34.5 28 32 C 28.5 30.5 28 30 28 30 C 28 27.5 25.5 26 25.5 26 C 31 24.5 31.5 14.5 20.5 10.5 C 9.5 14.5 10 24.5 15.5 26 C 15.5 26 13 27.5 13 30 C 13 30 12.5 30.5 13 32 Z"/>
            <path id="path3" fill="#ffffff" fill-rule="evenodd" stroke="#000000" stroke-width="1.5" stroke-linecap="round" stroke-linejoin="round" d="M 23 8 C 23 9.380714 21.880714 10.5 20.5 10.5 C 19.119286 10.5 18 9.380714 18 8 C 18 6.619286 19.119286 5.5 20.5 5.5 C 21.880714 5.5 23 6.619286 23 8 Z"/>
        </g>
        <path id="path4" fill="none" stroke="#000000" stroke-width="1.5" stroke-linecap="round" stroke-linejoin="round" d="M 15.5 26 L 25.5 26 M 13 30 L 28 30 M 20.5 15.5 L 20.5 20.5 M 18 18 L 23 18"/>
    </g>
</svg>
