<svg width="47" height="45" viewBox="0 0 47 45" xmlns="http://www.w3.org/2000/svg" xmlns:xlink="http://www.w3.org/1999/xlink">
    <g id="g1">
        <path id="path1" fill="#000000" fill-rule="evenodd" stroke="#000000" stroke-width="1.5" stroke-linecap="round" stroke-linejoin="round" d="M 22 10 C 32.5 11 38.5 18 38 39 L 15 39 C 15 30 25 32.5 23 18"/>
        <path id="path2" fill="#000000" fill-rule="evenodd" stroke="#000000" stroke-width="1.5" stroke-linecap="round" stroke-linejoin="round" d="M 24 18 C 24.380005 20.91 18.449997 25.370001 16 27 C 13 29 13.179993 31.34 11 31 C 9.958008 30.059999 12.410004 27.959999 11 28 C 10 28 11.190002 29.23 10 30 C 9 30 5.996994 31 6 26 C 6 24 12 14 12 14 C 12 14 13.889999 12.099998 14 10.5 C 13.270004 9.506001 13.5 8.5 13.5 7.5 C 14.5 6.5 16.5 10 16.5 10 L 18.5 10 C 18.5 10 19.279999 8.007999 21 7 C 22 7 22 10 22 10"/>
        <path id="path3" fill="#ffffff" fill-rule="evenodd" stroke="#ffffff" stroke-width="1.5" stroke-linecap="round" stroke-linejoin="round" d="M 9.5 25.5 C 9.5 25.776142 9.276138 26 9 26 C 8.723862 26 8.5 25.776142 8.5 25.5 C 8.5 25.223858 8.723862 25 9 25 C 9.276138 25 9.5 25.223858 9.5 25.5 Z"/>
        <path id="path4" fill="#ffffff" fill-rule="evenodd" stroke="#ffffff" stroke-width="1.499967" stroke-linecap="round" stroke-linejoin="round" d="M 14.932999 15.75 C 14.518784 16.467417 13.989136 16.937071 13.75 16.799 C 13.510864 16.660929 13.652786 15.967417 14.067001 15.25 C 14.481216 14.532581 15.010864 14.062929 15.25 14.201 C 15.489136 14.339071 15.347214 15.032581 14.932999 15.75 Z"/>
        <path id="path5" fill="#ffffff" fill-rule="evenodd" stroke="none" d="M 24.550003 10.400002 L 24.100006 11.849998 L 24.600006 12 C 27.75 13 30.25 14.49 32.5 18.75 C 34.75 23.01 35.75 29.059999 35.25 39 L 35.199997 39.5 L 37.449997 39.5 L 37.5 39 C 38 28.940001 36.619995 22.15 34.25 17.66 C 31.880005 13.17 28.459991 11.02 25.059998 10.5 L 24.550003 10.400002 Z"/>
    </g>
</svg>
