<svg width="48" height="45" viewBox="0 0 48 45" xmlns="http://www.w3.org/2000/svg" xmlns:xlink="http://www.w3.org/1999/xlink">
    <g id="g1">
        <path id="path1" fill="#ffffff" stroke="#000000" stroke-width="1.5" stroke-linecap="round" stroke-linejoin="round" d="M 25 9 C 22.790009 9 21 10.790001 21 13 C 21 13.889999 21.290009 14.709999 21.779999 15.379997 C 19.830002 16.5 18.5 18.589996 18.5 21 C 18.5 23.029999 19.440002 24.839996 20.910004 26.029999 C 17.910004 27.09 13.5 31.580002 13.5 39.5 L 36.5 39.5 C 36.5 31.580002 32.089996 27.09 29.089996 26.029999 C 30.559998 24.839996 31.5 23.029999 31.5 21 C 31.5 18.589996 30.169998 16.5 28.220001 15.379997 C 28.709991 14.709999 29 13.889999 29 13 C 29 10.790001 27.209991 9 25 9 Z"/>
    </g>
</svg>
