<svg width="47" height="45" viewBox="0 0 47 45" xmlns="http://www.w3.org/2000/svg" xmlns:xlink="http://www.w3.org/1999/xlink">
    <g id="g1">
        <path id="path1" fill="#ffffff" fill-rule="evenodd" stroke="#000000" stroke-width="1.5" stroke-linecap="round" stroke-linejoin="round" d="M 8 12 C 8 13.104568 7.104568 14 6 14 C 4.895432 14 4 13.104568 4 12 C 4 10.895432 4.895432 10 6 10 C 7.104568 10 8 10.895432 8 12 Z"/>
        <path id="path2" fill="#ffffff" fill-rule="evenodd" stroke="#000000" stroke-width="1.5" stroke-linecap="round" stroke-linejoin="round" d="M 24.5 7.5 C 24.5 8.604568 23.604568 9.5 22.5 9.5 C 21.395432 9.5 20.5 8.604568 20.5 7.5 C 20.5 6.395432 21.395432 5.5 22.5 5.5 C 23.604568 5.5 24.5 6.395432 24.5 7.5 Z"/>
        <path id="path3" fill="#ffffff" fill-rule="evenodd" stroke="#000000" stroke-width="1.5" stroke-linecap="round" stroke-linejoin="round" d="M 41 12 C 41 13.104568 40.104568 14 39 14 C 37.895432 14 37 13.104568 37 12 C 37 10.895432 37.895432 10 39 10 C 40.104568 10 41 10.895432 41 12 Z"/>
        <path id="path4" fill="#ffffff" fill-rule="evenodd" stroke="#000000" stroke-width="1.5" stroke-linecap="round" stroke-linejoin="round" d="M 16 8.5 C 16 9.604568 15.104568 10.5 14 10.5 C 12.895432 10.5 12 9.604568 12 8.5 C 12 7.395432 12.895432 6.5 14 6.5 C 15.104568 6.5 16 7.395432 16 8.5 Z"/>
        <path id="path5" fill="#ffffff" fill-rule="evenodd" stroke="#000000" stroke-width="1.5" stroke-linecap="round" stroke-linejoin="round" d="M 33 9 C 33 10.104568 32.104568 11 31 11 C 29.895432 11 29 10.104568 29 9 C 29 7.895432 29.895432 7 31 7 C 32.104568 7 33 7.895432 33 9 Z"/>
        <path id="path6" fill="#ffffff" fill-rule="evenodd" stroke="#000000" stroke-width="1.5" stroke-linecap="round" stroke-linejoin="round" d="M 9 26 C 17.5 24.5 30 24.5 36 26 L 38 14 L 31 25 L 31 11 L 25.5 24.5 L 22.5 9.5 L 19.5 24.5 L 14 10.5 L 14 25 L 7 14 L 9 26 Z"/>
        <path id="path7" fill="#ffffff" fill-rule="evenodd" stroke="#000000" stroke-width="1.5" stroke-linecap="round" stroke-linejoin="round" d="M 9 26 C 9 28 10.5 28 11.5 30 C 12.5 31.5 12.5 31 12 33.5 C 10.5 34.5 10.5 36 10.5 36 C 9 37.5 11 38.5 11 38.5 C 17.5 39.5 27.5 39.5 34 38.5 C 34 38.5 35.5 37.5 34 36 C 34 36 34.5 34.5 33 33.5 C 32.5 31 32.5 31.5 33.5 30 C 34.5 28 36 28 36 26 C 27.5 24.5 17.5 24.5 9 26 Z"/>
        <path id="path8" fill="none" stroke="#000000" stroke-width="1.5" stroke-linecap="round" stroke-linejoin="round" d="M 11.5 30 C 15 29 30 29 33.5 30"/>
        <path id="path9" fill="none" stroke="#000000" stroke-width="1.5" stroke-linecap="round" stroke-linejoin="round" d="M 12 33.5 C 18 32.5 27 32.5 33 33.5"/>
    </g>
</svg>
