<svg width="40" height="45" viewBox="0 0 40 45" xmlns="http://www.w3.org/2000/svg" xmlns:xlink="http://www.w3.org/1999/xlink">
    <g id="g1">
        <path id="path1" fill="#ffffff" fill-rule="evenodd" stroke="#000000" stroke-width="1.5" stroke-linecap="round" stroke-linejoin="round" d="M 7 39 L 34 39 L 34 36 L 7 36 L 7 39 Z"/>
        <path id="path2" fill="#ffffff" fill-rule="evenodd" stroke="#000000" stroke-width="1.5" stroke-linecap="round" stroke-linejoin="round" d="M 10 36 L 10 32 L 31 32 L 31 36 L 10 36 Z"/>
        <path id="path3" fill="#ffffff" fill-rule="evenodd" stroke="#000000" stroke-width="1.5" stroke-linecap="round" stroke-linejoin="round" d="M 9 14 L 9 9 L 13 9 L 13 11 L 18 11 L 18 9 L 23 9 L 23 11 L 28 11 L 28 9 L 32 9 L 32 14"/>
        <path id="path4" fill="#ffffff" fill-rule="evenodd" stroke="#000000" stroke-width="1.5" stroke-linecap="round" stroke-linejoin="round" d="M 32 14 L 29 17 L 12 17 L 9 14"/>
        <path id="path5" fill="#ffffff" fill-rule="evenodd" stroke="#000000" stroke-width="1.5" stroke-linecap="round" stroke-linejoin="round" d="M 29 17 L 29 29.5 L 12 29.5 L 12 17"/>
        <path id="path6" fill="#ffffff" fill-rule="evenodd" stroke="#000000" stroke-width="1.5" stroke-linecap="round" stroke-linejoin="round" d="M 29 29.5 L 30.5 32 L 10.5 32 L 12 29.5"/>
        <path id="path7" fill="none" stroke="#000000" stroke-width="1.5" stroke-linecap="round" stroke-linejoin="round" d="M 9 14 L 32 14"/>
    </g>
</svg>
